<svg width="500" height="500" viewBox="0 0 500 500" fill="none" xmlns="http://www.w3.org/2000/svg">
<circle cx="250" cy="250" r="250" fill="#E36C29"/>
<path fill-rule="evenodd" clip-rule="evenodd" d="M385.83 290.75V331.5C385.83 357.113 385.83 369.919 377.873 377.876C369.916 385.833 357.109 385.833 331.496 385.833C305.883 385.833 293.077 385.833 285.12 377.876C277.163 369.919 277.163 357.113 277.163 331.5V290.75C277.163 265.137 277.163 252.331 285.12 244.374C293.077 236.417 305.883 236.417 331.496 236.417C357.109 236.417 369.916 236.417 377.873 244.374C385.83 252.331 385.83 265.137 385.83 290.75ZM307.726 358.667C307.726 353.04 312.287 348.479 317.913 348.479H345.08C350.706 348.479 355.267 353.04 355.267 358.667C355.267 364.293 350.706 368.854 345.08 368.854H317.913C312.287 368.854 307.726 364.293 307.726 358.667Z" fill="white"/>
<path d="M195.663 317.917C157.244 317.917 138.034 317.917 126.098 305.981C118.365 298.248 115.125 287.462 114.167 270.375V263.583H257.012V270.375C256.786 276.305 256.787 282.757 256.788 289.534V332.716C256.787 344.474 256.785 355.254 257.964 364.024C259.263 373.681 262.318 383.889 270.713 392.284L271.058 392.625H195.663C190.037 392.625 185.476 388.064 185.476 382.437C185.476 376.811 190.037 372.25 195.663 372.25H239.809V317.917H195.663Z" fill="white"/>
<path opacity="0.5" d="M222.833 114.167H277.167C328.393 114.167 354.006 114.167 369.919 130.081C385.833 145.994 385.833 171.607 385.833 222.833V224.712C378.929 220.182 371.319 218.199 364.024 217.218C355.254 216.039 344.474 216.04 332.716 216.042H330.284C318.526 216.04 307.746 216.039 298.976 217.218C289.319 218.516 279.111 221.571 270.716 229.966C262.736 237.947 259.581 247.565 258.174 256.792V263.583H114.167L114.167 256.792C114.079 250.672 114.167 243.909 114.167 236.417V222.833C114.167 171.607 114.167 145.994 130.081 130.081C145.994 114.167 171.607 114.167 222.833 114.167Z" fill="white"/>
<path d="M468.306 427.153C468.306 449.881 449.881 468.306 427.153 468.306C404.425 468.306 386 449.881 386 427.153C386 404.425 404.425 386 427.153 386C449.881 386 468.306 404.425 468.306 427.153Z" fill="#163149"/>
</svg>
